<svg  xmlns="http://www.w3.org/2000/svg" version="1.1" viewBox="-25 -1 100 52" style="width:100%;"><>
  <g>
    <rect x="0" y="0" width="50" height="50" style="fill: none; stroke:black; stroke-width:0.5;" />
    <line x1="0" y1="10" x2="50" y2="10" style="fill: none; stroke:black; stroke-width:0.25;" />
    <line x1="0" y1="20" x2="50" y2="20" style="fill: none; stroke:black; stroke-width:0.25;" />
    <line x1="0" y1="30" x2="50" y2="30" style="fill: none; stroke:black; stroke-width:0.25;" />
    <line x1="0" y1="40" x2="50" y2="40" style="fill: none; stroke:black; stroke-width:0.25;" />
    <line x1="10" y1="0" x2="10" y2="50" style="fill: none; stroke:black; stroke-width:0.25;" />
    <line x1="20" y1="0" x2="20" y2="50" style="fill: none; stroke:black; stroke-width:0.25;" />
    <line x1="30" y1="0" x2="30" y2="50" style="fill: none; stroke:black; stroke-width:0.25;" />
    <line x1="40" y1="0" x2="40" y2="50" style="fill: none; stroke:black; stroke-width:0.25;" />
  </g>
  <g>
    <g>
      <rect x="0" y="0" width="10" height="10" style="fill: red;" />
      <text font-family="Verdana" font-size="5" text-anchor="middle" x="5" y="6">2</text>
    </g>
    <g>
      <rect x="10" y="0" width="10" height="10" style="fill:none;"/>
    </g>
    <g>
      <rect x="20" y="0" width="10" height="10" style="fill:none;"/>
    </g>
    <g>
      <rect x="30" y="0" width="10" height="10" style="fill:none;"/>
    </g>
    <g>
      <rect x="40" y="0" width="10" height="10" style="fill:none;"/>
    </g>
  </g>
  <g>
    <g>
      <rect x="0" y="10" width="10" height="10" style="fill: none;" />
    </g>
    <g>
      <rect x="10" y="10" width="10" height="10" style="fill:none;" />
    </g>
    <g>
      <rect x="20" y="10" width="10" height="10" style="fill:none;" />
    </g>
    <g>
      <rect x="30" y="10" width="10" height="10" style="fill:none;" />
    </g>
    <g>
      <rect x="40" y="10" width="10" height="10" style="fill:none;" />
    </g>
  </g>
  <g>
    <g>
      <rect x="0" y="20" width="10" height="10" style="fill: none;" />
    </g>
    <g>
      <rect x="10" y="20" width="10" height="10" style="fill:none;" />
    </g>
    <g>
      <rect x="20" y="20" width="10" height="10" style="fill:none;" />
    </g>
    <g>
      <rect x="30" y="20" width="10" height="10" style="fill:none;" />
    </g>
    <g>
      <rect x="40" y="20" width="10" height="10" style="fill:none;" />
    </g>
  </g>
  <g>
    <g>
      <rect x="0" y="30" width="10" height="10" style="fill: none;" />
    </g>
    <g>
      <rect x="10" y="30" width="10" height="10" style="fill:none;" />
    </g>
    <g>
      <rect x="20" y="30" width="10" height="10" style="fill:none;" />
    </g>
    <g>
      <rect x="30" y="30" width="10" height="10" style="fill:none;" />
    </g>
    <g>
      <rect x="40" y="30" width="10" height="10" style="fill:none;" />
    </g>
  </g>
  <g>
    <g>
      <rect x="0" y="40" width="10" height="10" style="fill: none;" />
    </g>
    <g>
      <rect x="10" y="40" width="10" height="10" style="fill:none;" />
    </g>
    <g>
      <rect x="20" y="40" width="10" height="10" style="fill:none;" />
    </g>
    <g>
      <rect x="30" y="40" width="10" height="10" style="fill:none;" />
    </g>
    <g>
      <rect x="40" y="40" width="10" height="10" style="fill:none;" />
    </g>
  </g>
</svg>
