<svg  xmlns="http://www.w3.org/2000/svg" version="1.1" viewBox="-25 -1 100 62" style="width:100%;">
  <g>
    <g>
      <g>
        <rect x="0" y="0" width="10" height="10" style="fill: GhostWhite;" />
        <text font-family="Verdana" font-size="3" text-anchor="middle" x="5" y="6">2</text>
      </g>
      <g>
        <rect x="10" y="0" width="10" height="10" style="fill:GhostWhite;"/>
        <text font-family="Verdana" font-size="3" text-anchor="middle" x="15" y="6">4</text>
      </g>
      <g>
        <rect x="20" y="0" width="10" height="10" style="fill:GhostWhite;"/>
        <text font-family="Verdana" font-size="3" text-anchor="middle" x="25" y="6">1</text>
      </g>
      <g>
        <rect x="30" y="0" width="10" height="10" style="fill:GhostWhite;"/>
        <text font-family="Verdana" font-size="3" text-anchor="middle" x="35" y="6">-3</text>
      </g>
    <g>
    <g>
      <g>
        <rect x="0" y="10" width="10" height="10" style="fill: #F6831D;" />
        <text font-family="Verdana" font-size="3" text-anchor="middle" x="5" y="16">-0.5</text>
      </g>
      <g>
        <rect x="10" y="10" width="10" height="10" style="fill:#F6831D;"/>
        <text font-family="Verdana" font-size="3" text-anchor="middle" x="15" y="16">0</text>
      </g>
      <g>
        <rect x="20" y="10" width="10" height="10" style="fill:#F6831D;"/>
        <text font-family="Verdana" font-size="3" text-anchor="middle" x="25" y="16">2.5</text>
      </g>
      <g>
        <rect x="30" y="10" width="10" height="10" style="fill:#F6831D;"/>
        <text font-family="Verdana" font-size="3" text-anchor="middle" x="35" y="16">2.5</text>
      </g>
    <g>
    <g>
      <g>
        <rect x="0" y="20" width="10" height="10" style="fill: GhostWhite;" />
        <text font-family="Verdana" font-size="3" text-anchor="middle" x="5" y="26">2</text>
      </g>
      <g>
        <rect x="10" y="20" width="10" height="10" style="fill:none;"/>
        <text font-family="Verdana" font-size="3" text-anchor="middle" x="15" y="26">-6</text>
      </g>
      <g>
        <rect x="20" y="20" width="10" height="10" style="fill:none;"/>
        <text font-family="Verdana" font-size="3" text-anchor="middle" x="25" y="26">-5</text>
      </g>
      <g>
        <rect x="30" y="20" width="10" height="10" style="fill:none;"/>
        <text font-family="Verdana" font-size="3" text-anchor="middle" x="35" y="26">11</text>
      </g>
    <g>
    <g>
      <g>
        <rect x="0" y="30" width="10" height="10" style="fill: #F6831D;" />
        <text font-family="Verdana" font-size="3" text-anchor="middle" x="5" y="36">2.5</text>
      </g>
      <g>
        <rect x="10" y="30" width="10" height="10" style="fill:#F6831D;"/>
        <text font-family="Verdana" font-size="3" text-anchor="middle" x="15" y="36">-14</text>
      </g>
      <g>
        <rect x="20" y="30" width="10" height="10" style="fill:#F6831D;"/>
        <text font-family="Verdana" font-size="3" text-anchor="middle" x="25" y="36">5.5</text>
      </g>
      <g>
        <rect x="30" y="30" width="10" height="10" style="fill:#F6831D;"/>
        <text font-family="Verdana" font-size="3" text-anchor="middle" x="35" y="36">8.5</text>
      </g>
    <g>
    <g>
      <rect x="0" y="0" width="40" height="40" style="fill: none;" stroke="black" stroke-width="0.5" />
      <line x1="0" y1="10" x2="40" y2="10" style="fill: none;" stroke="black" stroke-width="0.25" />
      <line x1="0" y1="20" x2="40" y2="20" style="fill: none;" stroke="black" stroke-width="0.25" />
      <line x1="0" y1="30" x2="40" y2="30" style="fill: none;" stroke="black" stroke-width="0.25" />
      <line x1="10" y1="0" x2="10" y2="40" style="fill: none;" stroke="black" stroke-width="0.25" />
      <line x1="20" y1="0" x2="20" y2="40" style="fill: none;" stroke="black" stroke-width="0.25" />
      <line x1="30" y1="0" x2="30" y2="40" style="fill: none;" stroke="black" stroke-width="0.25" />
    </g>
    <g>
      <text font-family="Verdana" font-size="4.5" text-anchor="middle" x="20" y="47">A</text>
    </g>
  </g>
  <g>
    <g>
      <g>
        <rect x="50" y="0" width="10" height="10" style="fill: GhostWhite;" />
        <text font-family="Verdana" font-size="3" text-anchor="middle" x="55" y="6">1</text>
      </g>
      <g>
        <rect x="50" y="10" width="10" height="10" style="fill:#F6831D;"/>
        <text font-family="Verdana" font-size="3" text-anchor="middle" x="55" y="16">2</text>
      </g>
      <g>
        <rect x="50" y="20" width="10" height="10" style="fill:none;"/>
        <text font-family="Verdana" font-size="3" text-anchor="middle" x="55" y="26">3</text>
      </g>
      <g>
        <rect x="50" y="30" width="10" height="10" style="fill:#F6831D;"/>
        <text font-family="Verdana" font-size="3" text-anchor="middle" x="55" y="36">4</text>
      </g>
    <g>
    <g>
      <rect x="50" y="0" width="10" height="40" style="fill: none;" stroke="black" stroke-width="0.5" />
      <line x1="50" y1="10" x2="60" y2="10" style="fill: none;" stroke="black" stroke-width="0.25" />
      <line x1="50" y1="20" x2="60" y2="20" style="fill: none;" stroke="black" stroke-width="0.25" />
      <line x1="50" y1="30" x2="60" y2="30" style="fill: none;" stroke="black" stroke-width="0.25" />
    </g>
    <g>
      <text font-family="Verdana" font-size="4.5" text-anchor="middle" x="55" y="47">b</text>
    </g>
  </g>
  <g>
    <rect x="0" y="50" width="60" height="5" style="fill:black;" rx="2" ry="2"/>
    <text font-size="3.5" fill="white" text-anchor="middle" x="30" y="53.75">Permutation des lignes 1 et 3</text>
  </g>
  <g>
    <rect x="-20" y="50" width="10" height="5" style="fill:blue;" rx="2" ry="2"/>
    <text font-size="3.5" fill="white" text-anchor="middle" x="-15" y="53.75">k=1</text>
  </g>
  <!-- https://developer.mozilla.org/en-US/docs/Web/SVG/Attribute/marker-end -->
  <defs>
    <marker id="triangle" viewBox="0 0 10 10"
          refX="1" refY="5" 
          markerUnits="strokeWidth"
          markerWidth="5" markerHeight="5"
          orient="auto-start-reverse">
      <path d="M 0 0 L 10 5 L 0 10 z" fill="black"/>
    </marker>
    <marker id="triangle-start" viewBox="0 0 10 10"
          refX="1" refY="5" 
          markerUnits="strokeWidth"
          markerWidth="5" markerHeight="5"
          orient="auto">
      <path d="M 10 0 L 0 5 L 10 10 z" fill="black"/>
    </marker>
  </defs>
  <g>
    <path d="M-2 15 C -2 15, -15 25, -2 35" stroke="black" fill="transparent" stroke-width="0.25" marker-start="url(#triangle)" marker-end="url(#triangle)"/>
    <path d="M62 15 C 62 15, 75 25, 62 35" stroke="black" fill="transparent" stroke-width="0.25"  marker-start="url(#triangle)" marker-end="url(#triangle)"/>
  </g>
</svg>
